{
  "asset": {
    "version": "2.0",
    "generator": "THREE.GLTFExporter"
  },
  "scenes": [
    {
      "nodes": [
        0,
        1,
        2,
        9
      ]
    }
  ],
  "scene": 0,
  "nodes": [
    {
      "matrix": [
        0.9044043531814997,
        0,
        0.4266764183152769,
        0,
        0,
        1,
        0,
        0,
        -0.4266764183152769,
        0,
        0.9044043531814997,
        0,
        0,
        -1,
        0,
        1
      ],
      "mesh": 0
    },
    {
      "matrix": [
        -0.009756344139258522,
        2.7755575615628914e-17,
        0.9999524057419114,
        0,
        0.40731403654334,
        0.913279520345623,
        0.003974085056897225,
        0,
        -0.9132360534844246,
        0.40733342327541544,
        -0.008910269295828721,
        0,
        -4.917926655830724,
        2.193557615792389,
        -0.04798326863398952,
        1
      ],
      "camera": 0
    },
    {
      "matrix": [
        1,
        0,
        0,
        0,
        0,
        1,
        0,
        0,
        0,
        0,
        1,
        0,
        0,
        1,
        0,
        1
      ]
    },
    {
      "name": "Cylinder001_1",
      "mesh": 1
    },
    {
      "name": "Cylinder001_2",
      "mesh": 2
    },
    {
      "name": "Cylinder001_3",
      "mesh": 3
    },
    {
      "name": "Cylinder001_4",
      "mesh": 4
    },
    {
      "name": "Cylinder001_5",
      "mesh": 5
    },
    {
      "matrix": [
        1,
        0,
        0,
        0,
        0,
        1,
        0,
        0,
        0,
        0,
        1,
        0,
        0,
        -1.14751673,
        -5.015955e-8,
        1
      ],
      "name": "Cylinder001",
      "extras": {
        "name": "Cylinder001"
      },
      "children": [
        3,
        4,
        5,
        6,
        7
      ]
    },
    {
      "matrix": [
        0.9044043531814997,
        0,
        0.4266764183152769,
        0,
        0,
        1,
        0,
        0,
        -0.4266764183152769,
        0,
        0.9044043531814997,
        0,
        0,
        0.26,
        0,
        1
      ],
      "children": [
        8
      ]
    }
  ],
  "bufferViews": [
    {
      "buffer": 0,
      "byteOffset": 0,
      "byteLength": 528,
      "target": 34962,
      "byteStride": 12
    },
    {
      "buffer": 0,
      "byteOffset": 528,
      "byteLength": 528,
      "target": 34962,
      "byteStride": 12
    },
    {
      "buffer": 0,
      "byteOffset": 1056,
      "byteLength": 65016,
      "target": 34962,
      "byteStride": 12
    },
    {
      "buffer": 0,
      "byteOffset": 66072,
      "byteLength": 65016,
      "target": 34962,
      "byteStride": 12
    },
    {
      "buffer": 0,
      "byteOffset": 131088,
      "byteLength": 43344,
      "target": 34962,
      "byteStride": 8
    },
    {
      "buffer": 0,
      "byteOffset": 174432,
      "byteLength": 10836,
      "target": 34963
    },
    {
      "buffer": 0,
      "byteOffset": 185268,
      "byteLength": 129600,
      "target": 34962,
      "byteStride": 12
    },
    {
      "buffer": 0,
      "byteOffset": 314868,
      "byteLength": 129600,
      "target": 34962,
      "byteStride": 12
    },
    {
      "buffer": 0,
      "byteOffset": 444468,
      "byteLength": 86400,
      "target": 34962,
      "byteStride": 8
    },
    {
      "buffer": 0,
      "byteOffset": 530868,
      "byteLength": 21600,
      "target": 34963
    },
    {
      "buffer": 0,
      "byteOffset": 552468,
      "byteLength": 19440,
      "target": 34962,
      "byteStride": 12
    },
    {
      "buffer": 0,
      "byteOffset": 571908,
      "byteLength": 19440,
      "target": 34962,
      "byteStride": 12
    },
    {
      "buffer": 0,
      "byteOffset": 591348,
      "byteLength": 12960,
      "target": 34962,
      "byteStride": 8
    },
    {
      "buffer": 0,
      "byteOffset": 604308,
      "byteLength": 3240,
      "target": 34963
    },
    {
      "buffer": 0,
      "byteOffset": 607548,
      "byteLength": 3816,
      "target": 34962,
      "byteStride": 12
    },
    {
      "buffer": 0,
      "byteOffset": 611364,
      "byteLength": 3816,
      "target": 34962,
      "byteStride": 12
    },
    {
      "buffer": 0,
      "byteOffset": 615180,
      "byteLength": 2544,
      "target": 34962,
      "byteStride": 8
    },
    {
      "buffer": 0,
      "byteOffset": 617724,
      "byteLength": 636,
      "target": 34963
    },
    {
      "buffer": 0,
      "byteOffset": 618360,
      "byteLength": 129024,
      "target": 34962,
      "byteStride": 12
    },
    {
      "buffer": 0,
      "byteOffset": 747384,
      "byteLength": 129024,
      "target": 34962,
      "byteStride": 12
    },
    {
      "buffer": 0,
      "byteOffset": 876408,
      "byteLength": 86016,
      "target": 34962,
      "byteStride": 8
    },
    {
      "buffer": 0,
      "byteOffset": 962424,
      "byteLength": 21504,
      "target": 34963
    }
  ],
  "buffers": [
    {
      "byteLength": 983928,
      "uri": "data:application/octet-stream;base64,"
    }
  ],
  "accessors": [
    {
      "bufferView": 0,
      "componentType": 5126,
      "count": 44,
      "max": [
        2,
        0,
        2
      ],
      "min": [
        -2,
        0,
        -2
      ],
      "type": "VEC3"
    },
    {
      "bufferView": 1,
      "componentType": 5126,
      "count": 44,
      "max": [
        0.5333333611488342,
        0.5333333611488342,
        0.5333333611488342
      ],
      "min": [
        0.2666666805744171,
        0.2666666805744171,
        0.2666666805744171
      ],
      "type": "VEC3"
    },
    {
      "bufferView": 2,
      "componentType": 5126,
      "count": 5418,
      "max": [
        0.9673311710357666,
        2.338921308517456,
        1.0644391775131226
      ],
      "min": [
        -0.9673312306404114,
        -0.09678768366575241,
        -0.9673312306404114
      ],
      "type": "VEC3"
    },
    {
      "bufferView": 3,
      "componentType": 5126,
      "count": 5418,
      "max": [
        0.897303581237793,
        0.912388026714325,
        1
      ],
      "min": [
        -0.897304356098175,
        -0.9986994862556458,
        -0.5454305410385132
      ],
      "type": "VEC3"
    },
    {
      "bufferView": 4,
      "componentType": 5126,
      "count": 5418,
      "max": [
        1,
        1
      ],
      "min": [
        0,
        0
      ],
      "type": "VEC2"
    },
    {
      "bufferView": 5,
      "componentType": 5123,
      "count": 5418,
      "max": [
        5417
      ],
      "min": [
        0
      ],
      "type": "SCALAR"
    },
    {
      "bufferView": 6,
      "componentType": 5126,
      "count": 10800,
      "max": [
        1.012141227722168,
        2.338921308517456,
        0.8765403032302856
      ],
      "min": [
        -1.012141227722168,
        -0.09678768366575241,
        -1.012141227722168
      ],
      "type": "VEC3"
    },
    {
      "bufferView": 7,
      "componentType": 5126,
      "count": 10800,
      "max": [
        1,
        0.4794779121875763,
        0.8660256862640381
      ],
      "min": [
        -1,
        -0.998699426651001,
        -1
      ],
      "type": "VEC3"
    },
    {
      "bufferView": 8,
      "componentType": 5126,
      "count": 10800,
      "max": [
        0.9926252961158752,
        0.9951648712158203
      ],
      "min": [
        0.0030610894318670034,
        0.002109527587890625
      ],
      "type": "VEC2"
    },
    {
      "bufferView": 9,
      "componentType": 5123,
      "count": 10800,
      "max": [
        10799
      ],
      "min": [
        0
      ],
      "type": "SCALAR"
    },
    {
      "bufferView": 10,
      "componentType": 5126,
      "count": 1620,
      "max": [
        1.006611943244934,
        2.3633275032043457,
        1.006611943244934
      ],
      "min": [
        -1.006611943244934,
        2.338921070098877,
        -1.006611943244934
      ],
      "type": "VEC3"
    },
    {
      "bufferView": 11,
      "componentType": 5126,
      "count": 1620,
      "max": [
        0.8782633543014526,
        0.9908762574195862,
        0.8782632946968079
      ],
      "min": [
        -0.878264307975769,
        0.47817471623420715,
        -0.8782644271850586
      ],
      "type": "VEC3"
    },
    {
      "bufferView": 12,
      "componentType": 5126,
      "count": 1620,
      "max": [
        1,
        1
      ],
      "min": [
        0,
        0
      ],
      "type": "VEC2"
    },
    {
      "bufferView": 13,
      "componentType": 5123,
      "count": 1620,
      "max": [
        1619
      ],
      "min": [
        0
      ],
      "type": "SCALAR"
    },
    {
      "bufferView": 14,
      "componentType": 5126,
      "count": 318,
      "max": [
        0.9454922080039978,
        2.3548696041107178,
        0.9454922080039978
      ],
      "min": [
        -0.9454920887947083,
        0.061735473573207855,
        -0.9454922676086426
      ],
      "type": "VEC3"
    },
    {
      "bufferView": 15,
      "componentType": 5126,
      "count": 318,
      "max": [
        0.8782633543014526,
        0.6880062222480774,
        0.8782632946968079
      ],
      "min": [
        -0.878264307975769,
        0.47817471623420715,
        -0.8782644271850586
      ],
      "type": "VEC3"
    },
    {
      "bufferView": 16,
      "componentType": 5126,
      "count": 318,
      "max": [
        1,
        1
      ],
      "min": [
        0,
        0
      ],
      "type": "VEC2"
    },
    {
      "bufferView": 17,
      "componentType": 5123,
      "count": 318,
      "max": [
        317
      ],
      "min": [
        0
      ],
      "type": "SCALAR"
    },
    {
      "bufferView": 18,
      "componentType": 5126,
      "count": 10752,
      "max": [
        0.15752646327018738,
        2.0863049030303955,
        1.9095518589019775
      ],
      "min": [
        -0.15752753615379333,
        0.19499371945858002,
        1.0588757991790771
      ],
      "type": "VEC3"
    },
    {
      "bufferView": 19,
      "componentType": 5126,
      "count": 10752,
      "max": [
        0.9999309778213501,
        0.9999876618385315,
        0.999824583530426
      ],
      "min": [
        -0.9999309778213501,
        -0.9998584985733032,
        -0.9999991655349731
      ],
      "type": "VEC3"
    },
    {
      "bufferView": 20,
      "componentType": 5126,
      "count": 10752,
      "max": [
        0.528211772441864,
        0.91796875
      ],
      "min": [
        0.47178810834884644,
        0.08203119039535522
      ],
      "type": "VEC2"
    },
    {
      "bufferView": 21,
      "componentType": 5123,
      "count": 10752,
      "max": [
        10751
      ],
      "min": [
        0
      ],
      "type": "SCALAR"
    }
  ],
  "materials": [
    {
      "pbrMetallicRoughness": {
        "metallicFactor": 0.5,
        "roughnessFactor": 0.5
      }
    },
    {
      "pbrMetallicRoughness": {
        "metallicFactor": 0,
        "roughnessFactor": 0
      },
      "alphaMode": "BLEND"
    },
    {
      "pbrMetallicRoughness": {
        "metallicFactor": 0,
        "roughnessFactor": 0
      },
      "alphaMode": "BLEND"
    },
    {
      "pbrMetallicRoughness": {
        "baseColorFactor": [
          0.5803921568627451,
          0.7843137254901961,
          0.03137254901960784,
          1
        ],
        "metallicFactor": 0,
        "roughnessFactor": 0
      },
      "alphaMode": "BLEND"
    },
    {
      "pbrMetallicRoughness": {
        "baseColorFactor": [
          0.5803921568627451,
          0.7843137254901961,
          0.03137254901960784,
          1
        ],
        "metallicFactor": 0,
        "roughnessFactor": 0
      },
      "alphaMode": "BLEND"
    },
    {
      "pbrMetallicRoughness": {
        "baseColorFactor": [
          0.5803921568627451,
          0.7843137254901961,
          0.03137254901960784,
          1
        ],
        "metallicFactor": 0,
        "roughnessFactor": 0
      },
      "alphaMode": "BLEND"
    }
  ],
  "meshes": [
    {
      "primitives": [
        {
          "mode": 1,
          "attributes": {
            "POSITION": 0,
            "COLOR_0": 1
          },
          "material": 0
        }
      ]
    },
    {
      "primitives": [
        {
          "mode": 4,
          "attributes": {
            "POSITION": 2,
            "NORMAL": 3,
            "TEXCOORD_0": 4
          },
          "indices": 5,
          "material": 1
        }
      ]
    },
    {
      "primitives": [
        {
          "mode": 4,
          "attributes": {
            "POSITION": 6,
            "NORMAL": 7,
            "TEXCOORD_0": 8
          },
          "indices": 9,
          "material": 2
        }
      ]
    },
    {
      "primitives": [
        {
          "mode": 4,
          "attributes": {
            "POSITION": 10,
            "NORMAL": 11,
            "TEXCOORD_0": 12
          },
          "indices": 13,
          "material": 3
        }
      ]
    },
    {
      "primitives": [
        {
          "mode": 4,
          "attributes": {
            "POSITION": 14,
            "NORMAL": 15,
            "TEXCOORD_0": 16
          },
          "indices": 17,
          "material": 4
        }
      ]
    },
    {
      "primitives": [
        {
          "mode": 4,
          "attributes": {
            "POSITION": 18,
            "NORMAL": 19,
            "TEXCOORD_0": 20
          },
          "indices": 21,
          "material": 5
        }
      ]
    }
  ],
  "cameras": [
    {
      "type": "perspective",
      "perspective": {
        "aspectRatio": 1.049689440993789,
        "yfov": 0.7853981633974483,
        "zfar": 10000,
        "znear": 1
      }
    }
  ]
}