{"asset":{"version":"2.0","generator":"babylon.js glTF exporter for 3dsmax 2021 v20210607.3"},"scene":0,"scenes":[{"nodes":[0]}],"nodes":[{"mesh":0,"translation":[0.0,-0.4064,-3.563983E-08],"scale":[0.989513755,0.733890533,0.989513755],"name":"Cylinder001"}],"meshes":[{"primitives":[{"attributes":{"POSITION":1,"NORMAL":2,"TEXCOORD_0":3},"indices":0,"material":0},{"attributes":{"POSITION":5,"NORMAL":6,"TEXCOORD_0":7},"indices":4,"material":1},{"attributes":{"POSITION":9,"NORMAL":10,"TEXCOORD_0":11},"indices":8,"material":2},{"attributes":{"POSITION":13,"NORMAL":14,"TEXCOORD_0":15},"indices":12,"material":3},{"attributes":{"POSITION":17,"NORMAL":18,"TEXCOORD_0":19},"indices":16,"material":4}],"name":"Cylinder001"}],"accessors":[{"bufferView":0,"componentType":5123,"count":12498,"type":"SCALAR","name":"accessorIndices"},{"bufferView":1,"componentType":5126,"count":12498,"max":[1.01067674,2.373546,1.03885257],"min":[-1.01067674,-1.15142488,-1.01067674],"type":"VEC3","name":"accessorPositions"},{"bufferView":1,"byteOffset":149976,"componentType":5126,"count":12498,"type":"VEC3","name":"accessorNormals"},{"bufferView":2,"componentType":5126,"count":12498,"type":"VEC2","name":"accessorUVs"},{"bufferView":0,"byteOffset":24996,"componentType":5123,"count":9408,"type":"SCALAR","name":"accessorIndices"},{"bufferView":1,"byteOffset":299952,"componentType":5126,"count":9408,"max":[1.01214123,2.373546,0.775345564],"min":[-1.01214123,-0.161096513,-1.01214123],"type":"VEC3","name":"accessorPositions"},{"bufferView":1,"byteOffset":412848,"componentType":5126,"count":9408,"type":"VEC3","name":"accessorNormals"},{"bufferView":2,"byteOffset":99984,"componentType":5126,"count":9408,"type":"VEC2","name":"accessorUVs"},{"bufferView":0,"byteOffset":43812,"componentType":5123,"count":1620,"type":"SCALAR","name":"accessorIndices"},{"bufferView":1,"byteOffset":525744,"componentType":5126,"count":1620,"max":[1.006612,2.40289855,1.006612],"min":[-1.006612,2.37069225,-1.006612],"type":"VEC3","name":"accessorPositions"},{"bufferView":1,"byteOffset":545184,"componentType":5126,"count":1620,"type":"VEC3","name":"accessorNormals"},{"bufferView":2,"byteOffset":175248,"componentType":5126,"count":1620,"type":"VEC2","name":"accessorUVs"},{"bufferView":0,"byteOffset":47052,"componentType":5123,"count":966,"type":"SCALAR","name":"accessorIndices"},{"bufferView":1,"byteOffset":564624,"componentType":5126,"count":966,"max":[0.9454921,2.39444113,0.9454921],"min":[-0.94549197,-0.929611266,-0.9454921],"type":"VEC3","name":"accessorPositions"},{"bufferView":1,"byteOffset":576216,"componentType":5126,"count":966,"type":"VEC3","name":"accessorNormals"},{"bufferView":2,"byteOffset":188208,"componentType":5126,"count":966,"type":"VEC2","name":"accessorUVs"},{"bufferView":0,"byteOffset":48984,"componentType":5123,"count":26796,"type":"SCALAR","name":"accessorIndices"},{"bufferView":1,"byteOffset":587808,"componentType":5126,"count":26796,"max":[0.365900427,3.26823545,1.90945554],"min":[-0.366492033,-0.8685908,0.900257647],"type":"VEC3","name":"accessorPositions"},{"bufferView":1,"byteOffset":909360,"componentType":5126,"count":26796,"type":"VEC3","name":"accessorNormals"},{"bufferView":2,"byteOffset":195936,"componentType":5126,"count":26796,"type":"VEC2","name":"accessorUVs"}],"bufferViews":[{"buffer":0,"byteLength":102576,"name":"bufferViewScalar"},{"buffer":0,"byteOffset":102576,"byteLength":1230912,"byteStride":12,"name":"bufferViewFloatVec3"},{"buffer":0,"byteOffset":1333488,"byteLength":410304,"byteStride":8,"name":"bufferViewFloatVec2"}],"buffers":[{"uri":"model.bin","byteLength":1743792}],"materials":[{"pbrMetallicRoughness":{"metallicFactor":0.0,"roughnessFactor":0.9},"doubleSided":true,"name":"01 - Default"},{"pbrMetallicRoughness":{"baseColorTexture":{"index":0},"metallicFactor":0.0,"roughnessFactor":0.9},"doubleSided":true,"name":"02 - Default"},{"pbrMetallicRoughness":{"baseColorFactor":[0.0,1.0,0.117647067,1.0],"metallicFactor":0.0,"roughnessFactor":0.9},"doubleSided":true,"name":"03 - Default"},{"pbrMetallicRoughness":{"baseColorFactor":[0.2784314,0.0,0.9921569,1.0],"metallicFactor":0.0,"roughnessFactor":0.9},"doubleSided":true,"name":"04 - Default"},{"pbrMetallicRoughness":{"baseColorFactor":[0.9725491,0.776470661,0.0,1.0],"metallicFactor":0.0,"roughnessFactor":0.9},"doubleSided":true,"name":"05 - Default"}],"textures":[{"sampler":0,"source":0,"name":"texture.jpg"}],"images":[{"uri":"./texture.jpg"}],"samplers":[{"magFilter":9729,"minFilter":9987}]}